# MagicaVoxel @ Ephtracy

# material
mtllib Tree.mtl
usemtl palette

# normals
vn -1 0 0
vn 1 0 0
vn 0 0 1
vn 0 0 -1
vn 0 -1 0
vn 0 1 0

# texcoords
vt 0.306641 0.5
vt 0.677734 0.5
vt 0.873047 0.5
vt 0.904297 0.5

# verts
v -40 81 15
v -40 81 -15
v -40 91 25
v -40 91 15
v -40 91 -15
v -40 91 -25
v -40 106 25
v -40 106 15
v -40 106 -15
v -40 106 -25
v -40 116 15
v -40 116 -15
v -25 71 15
v -25 71 -15
v -25 81 25
v -25 81 15
v -25 81 -15
v -25 81 -25
v -25 90 -25
v -25 90 -40
v -25 91 40
v -25 91 25
v -25 91 15
v -25 91 -15
v -25 91 -25
v -25 106 40
v -25 106 25
v -25 106 15
v -25 106 -15
v -25 106 -25
v -25 106 -40
v -25 116 25
v -25 116 15
v -25 116 -15
v -25 116 -25
v -25 126 15
v -25 126 -15
v -15 71 25
v -15 71 15
v -15 71 -15
v -15 71 -25
v -15 81 40
v -15 81 25
v -15 81 15
v -15 81 -15
v -15 81 -25
v -15 81 -40
v -15 90 -25
v -15 90 -40
v -15 91 40
v -15 91 25
v -15 106 40
v -15 106 25
v -15 106 -25
v -15 106 -40
v -15 116 40
v -15 116 25
v -15 116 15
v -15 116 -15
v -15 116 -25
v -15 116 -40
v -15 126 25
v -15 126 15
v -15 126 -15
v -15 126 -25
v -10 0 5
v -10 0 -5
v -10 71 5
v -10 71 -5
v -5 0 10
v -5 0 5
v -5 0 -5
v -5 0 -10
v -5 71 10
v -5 71 5
v -5 71 -5
v -5 71 -10
v 5 0 10
v 5 0 5
v 5 0 -5
v 5 0 -10
v 5 71 10
v 5 71 5
v 5 71 -5
v 5 71 -10
v 10 0 5
v 10 0 -5
v 10 71 5
v 10 71 -5
v 15 71 25
v 15 71 15
v 15 71 -15
v 15 71 -25
v 15 81 40
v 15 81 25
v 15 81 -25
v 15 81 -40
v 15 82 25
v 15 82 15
v 15 82 -15
v 15 82 -25
v 15 91 40
v 15 91 25
v 15 91 -25
v 15 91 -40
v 15 106 40
v 15 106 25
v 15 106 -25
v 15 106 -40
v 15 116 40
v 15 116 25
v 15 116 15
v 15 116 -15
v 15 116 -25
v 15 116 -40
v 15 126 25
v 15 126 15
v 15 126 -15
v 15 126 -25
v 25 71 15
v 25 71 -15
v 25 81 15
v 25 81 -15
v 25 82 25
v 25 82 15
v 25 82 -15
v 25 82 -25
v 25 91 40
v 25 91 25
v 25 91 15
v 25 91 -15
v 25 91 -25
v 25 91 -40
v 25 106 40
v 25 106 25
v 25 106 15
v 25 106 -15
v 25 106 -25
v 25 106 -40
v 25 116 25
v 25 116 15
v 25 116 -15
v 25 116 -25
v 25 126 15
v 25 126 -15
v 40 81 15
v 40 81 -15
v 40 91 25
v 40 91 15
v 40 91 -15
v 40 91 -25
v 40 106 25
v 40 106 15
v 40 106 -15
v 40 106 -25
v 40 116 15
v 40 116 -15
v -25 91 40
v -25 106 40
v -15 81 40
v -15 91 40
v -15 106 40
v -15 116 40
v 15 81 40
v 15 91 40
v 15 106 40
v 15 116 40
v 25 91 40
v 25 106 40
v -40 91 25
v -40 106 25
v -25 81 25
v -25 91 25
v -25 106 25
v -25 116 25
v -15 71 25
v -15 81 25
v -15 91 25
v -15 106 25
v -15 116 25
v -15 126 25
v 15 71 25
v 15 81 25
v 15 82 25
v 15 91 25
v 15 106 25
v 15 116 25
v 15 126 25
v 25 82 25
v 25 91 25
v 25 106 25
v 25 116 25
v 40 91 25
v 40 106 25
v -40 81 15
v -40 91 15
v -40 106 15
v -40 116 15
v -25 71 15
v -25 81 15
v -25 91 15
v -25 106 15
v -25 116 15
v -25 126 15
v -15 71 15
v -15 81 15
v -15 116 15
v -15 126 15
v 15 71 15
v 15 82 15
v 15 116 15
v 15 126 15
v 25 71 15
v 25 81 15
v 25 82 15
v 25 91 15
v 25 106 15
v 25 116 15
v 25 126 15
v 40 81 15
v 40 91 15
v 40 106 15
v 40 116 15
v -5 0 10
v -5 71 10
v 5 0 10
v 5 71 10
v -10 0 5
v -10 71 5
v -5 0 5
v -5 71 5
v 5 0 5
v 5 71 5
v 10 0 5
v 10 71 5
v -10 0 -5
v -10 71 -5
v -5 0 -5
v -5 71 -5
v 5 0 -5
v 5 71 -5
v 10 0 -5
v 10 71 -5
v -5 0 -10
v -5 71 -10
v 5 0 -10
v 5 71 -10
v -40 81 -15
v -40 91 -15
v -40 106 -15
v -40 116 -15
v -25 71 -15
v -25 81 -15
v -25 91 -15
v -25 106 -15
v -25 116 -15
v -25 126 -15
v -15 71 -15
v -15 81 -15
v -15 116 -15
v -15 126 -15
v 15 71 -15
v 15 82 -15
v 15 116 -15
v 15 126 -15
v 25 71 -15
v 25 81 -15
v 25 82 -15
v 25 91 -15
v 25 106 -15
v 25 116 -15
v 25 126 -15
v 40 81 -15
v 40 91 -15
v 40 106 -15
v 40 116 -15
v -40 91 -25
v -40 106 -25
v -25 81 -25
v -25 90 -25
v -25 91 -25
v -25 106 -25
v -25 116 -25
v -15 71 -25
v -15 81 -25
v -15 90 -25
v -15 106 -25
v -15 116 -25
v -15 126 -25
v 15 71 -25
v 15 81 -25
v 15 82 -25
v 15 91 -25
v 15 106 -25
v 15 116 -25
v 15 126 -25
v 25 82 -25
v 25 91 -25
v 25 106 -25
v 25 116 -25
v 40 91 -25
v 40 106 -25
v -25 90 -40
v -25 106 -40
v -15 81 -40
v -15 90 -40
v -15 106 -40
v -15 116 -40
v 15 81 -40
v 15 91 -40
v 15 106 -40
v 15 116 -40
v 25 91 -40
v 25 106 -40
v -5 0 10
v 5 0 10
v -10 0 5
v -5 0 5
v 5 0 5
v 10 0 5
v -10 0 -5
v -5 0 -5
v 5 0 -5
v 10 0 -5
v -5 0 -10
v 5 0 -10
v -15 71 25
v 15 71 25
v -25 71 15
v -15 71 15
v 15 71 15
v 25 71 15
v -5 71 10
v 5 71 10
v -10 71 5
v -5 71 5
v 5 71 5
v 10 71 5
v -10 71 -5
v -5 71 -5
v 5 71 -5
v 10 71 -5
v -5 71 -10
v 5 71 -10
v -25 71 -15
v -15 71 -15
v 15 71 -15
v 25 71 -15
v -15 71 -25
v 15 71 -25
v -15 81 40
v 15 81 40
v -25 81 25
v -15 81 25
v 15 81 25
v -40 81 15
v -25 81 15
v -15 81 15
v 25 81 15
v 40 81 15
v -40 81 -15
v -25 81 -15
v -15 81 -15
v 25 81 -15
v 40 81 -15
v -25 81 -25
v -15 81 -25
v 15 81 -25
v -15 81 -40
v 15 81 -40
v 15 82 25
v 25 82 25
v 15 82 15
v 25 82 15
v 15 82 -15
v 25 82 -15
v 15 82 -25
v 25 82 -25
v -25 90 -25
v -15 90 -25
v -25 90 -40
v -15 90 -40
v -25 91 40
v -15 91 40
v 15 91 40
v 25 91 40
v -40 91 25
v -25 91 25
v -15 91 25
v 15 91 25
v 25 91 25
v 40 91 25
v -40 91 15
v -25 91 15
v 25 91 15
v 40 91 15
v -40 91 -15
v -25 91 -15
v 25 91 -15
v 40 91 -15
v -40 91 -25
v -25 91 -25
v 15 91 -25
v 25 91 -25
v 40 91 -25
v 15 91 -40
v 25 91 -40
v -25 106 40
v -15 106 40
v 15 106 40
v 25 106 40
v -40 106 25
v -25 106 25
v -15 106 25
v 15 106 25
v 25 106 25
v 40 106 25
v -40 106 15
v -25 106 15
v 25 106 15
v 40 106 15
v -40 106 -15
v -25 106 -15
v 25 106 -15
v 40 106 -15
v -40 106 -25
v -25 106 -25
v -15 106 -25
v 15 106 -25
v 25 106 -25
v 40 106 -25
v -25 106 -40
v -15 106 -40
v 15 106 -40
v 25 106 -40
v -15 116 40
v 15 116 40
v -25 116 25
v -15 116 25
v 15 116 25
v 25 116 25
v -40 116 15
v -25 116 15
v -15 116 15
v 15 116 15
v 25 116 15
v 40 116 15
v -40 116 -15
v -25 116 -15
v -15 116 -15
v 15 116 -15
v 25 116 -15
v 40 116 -15
v -25 116 -25
v -15 116 -25
v 15 116 -25
v 25 116 -25
v -15 116 -40
v 15 116 -40
v -15 126 25
v 15 126 25
v -25 126 15
v -15 126 15
v 15 126 15
v 25 126 15
v -25 126 -15
v -15 126 -15
v 15 126 -15
v 25 126 -15
v -15 126 -25
v 15 126 -25

# faces
f 4/4/1 2/4/1 1/4/1
f 5/4/1 2/4/1 4/4/1
f 7/4/1 4/4/1 3/4/1
f 7/4/1 6/4/1 5/4/1
f 7/4/1 5/4/1 4/4/1
f 8/4/1 6/4/1 7/4/1
f 9/4/1 6/4/1 8/4/1
f 10/4/1 6/4/1 9/4/1
f 11/4/1 9/4/1 8/4/1
f 12/4/1 9/4/1 11/4/1
f 16/4/1 14/4/1 13/4/1
f 17/4/1 14/4/1 16/4/1
f 19/4/1 18/4/1 17/4/1
f 22/4/1 16/4/1 15/4/1
f 23/4/1 16/4/1 22/4/1
f 24/4/1 20/4/1 19/4/1
f 24/4/1 19/4/1 17/4/1
f 25/4/1 20/4/1 24/4/1
f 26/4/1 22/4/1 21/4/1
f 27/4/1 22/4/1 26/4/1
f 30/4/1 20/4/1 25/4/1
f 31/4/1 20/4/1 30/4/1
f 32/4/1 28/4/1 27/4/1
f 33/4/1 28/4/1 32/4/1
f 34/4/1 30/4/1 29/4/1
f 35/4/1 30/4/1 34/4/1
f 36/4/1 34/4/1 33/4/1
f 37/4/1 34/4/1 36/4/1
f 43/4/1 39/4/1 38/4/1
f 44/4/1 39/4/1 43/4/1
f 45/4/1 41/4/1 40/4/1
f 46/4/1 41/4/1 45/4/1
f 48/4/1 47/4/1 46/4/1
f 49/4/1 47/4/1 48/4/1
f 50/4/1 43/4/1 42/4/1
f 51/4/1 43/4/1 50/4/1
f 56/4/1 53/4/1 52/4/1
f 57/4/1 53/4/1 56/4/1
f 60/4/1 55/4/1 54/4/1
f 61/4/1 55/4/1 60/4/1
f 62/4/1 58/4/1 57/4/1
f 63/4/1 58/4/1 62/4/1
f 64/4/1 60/4/1 59/4/1
f 65/4/1 60/4/1 64/4/1
f 68/2/1 67/2/1 66/2/1
f 69/2/1 67/2/1 68/2/1
f 74/2/1 71/2/1 70/2/1
f 75/2/1 71/2/1 74/2/1
f 76/2/1 73/2/1 72/2/1
f 77/2/1 73/2/1 76/2/1
f 78/2/2 79/2/2 82/2/2
f 82/2/2 79/2/2 83/2/2
f 80/2/2 81/2/2 84/2/2
f 84/2/2 81/2/2 85/2/2
f 86/2/2 87/2/2 88/2/2
f 88/2/2 87/2/2 89/2/2
f 90/4/2 91/4/2 95/4/2
f 92/4/2 93/4/2 96/4/2
f 94/4/2 95/4/2 98/4/2
f 95/4/2 91/4/2 98/4/2
f 98/4/2 91/4/2 99/4/2
f 96/4/2 97/4/2 100/4/2
f 92/4/2 96/4/2 100/4/2
f 100/4/2 97/4/2 101/4/2
f 94/4/2 98/4/2 102/4/2
f 102/4/2 98/4/2 103/4/2
f 101/4/2 97/4/2 104/4/2
f 104/4/2 97/4/2 105/4/2
f 106/4/2 107/4/2 110/4/2
f 110/4/2 107/4/2 111/4/2
f 108/4/2 109/4/2 114/4/2
f 114/4/2 109/4/2 115/4/2
f 111/4/2 112/4/2 116/4/2
f 116/4/2 112/4/2 117/4/2
f 113/4/2 114/4/2 118/4/2
f 118/4/2 114/4/2 119/4/2
f 120/4/2 121/4/2 122/4/2
f 122/4/2 121/4/2 123/4/2
f 124/4/2 125/4/2 129/4/2
f 129/4/2 125/4/2 130/4/2
f 126/4/2 127/4/2 131/4/2
f 131/4/2 127/4/2 132/4/2
f 128/4/2 129/4/2 134/4/2
f 134/4/2 129/4/2 135/4/2
f 132/4/2 133/4/2 138/4/2
f 138/4/2 133/4/2 139/4/2
f 135/4/2 136/4/2 140/4/2
f 140/4/2 136/4/2 141/4/2
f 137/4/2 138/4/2 142/4/2
f 142/4/2 138/4/2 143/4/2
f 141/4/2 142/4/2 144/4/2
f 144/4/2 142/4/2 145/4/2
f 146/4/2 147/4/2 149/4/2
f 149/4/2 147/4/2 150/4/2
f 148/4/2 149/4/2 152/4/2
f 150/4/2 151/4/2 152/4/2
f 149/4/2 150/4/2 152/4/2
f 152/4/2 151/4/2 153/4/2
f 153/4/2 151/4/2 154/4/2
f 154/4/2 151/4/2 155/4/2
f 153/4/2 154/4/2 156/4/2
f 156/4/2 154/4/2 157/4/2
f 161/4/3 159/4/3 158/4/3
f 162/4/3 159/4/3 161/4/3
f 164/4/3 161/4/3 160/4/3
f 164/4/3 163/4/3 162/4/3
f 164/4/3 162/4/3 161/4/3
f 165/4/3 163/4/3 164/4/3
f 166/4/3 163/4/3 165/4/3
f 167/4/3 163/4/3 166/4/3
f 168/4/3 166/4/3 165/4/3
f 169/4/3 166/4/3 168/4/3
f 173/4/3 171/4/3 170/4/3
f 174/4/3 171/4/3 173/4/3
f 177/4/3 173/4/3 172/4/3
f 178/4/3 173/4/3 177/4/3
f 179/4/3 175/4/3 174/4/3
f 180/4/3 175/4/3 179/4/3
f 182/4/3 177/4/3 176/4/3
f 183/4/3 177/4/3 182/4/3
f 187/4/3 181/4/3 180/4/3
f 188/4/3 181/4/3 187/4/3
f 189/4/3 185/4/3 184/4/3
f 190/4/3 185/4/3 189/4/3
f 191/4/3 187/4/3 186/4/3
f 192/4/3 187/4/3 191/4/3
f 193/4/3 191/4/3 190/4/3
f 194/4/3 191/4/3 193/4/3
f 200/4/3 196/4/3 195/4/3
f 201/4/3 196/4/3 200/4/3
f 202/4/3 198/4/3 197/4/3
f 203/4/3 198/4/3 202/4/3
f 205/4/3 200/4/3 199/4/3
f 206/4/3 200/4/3 205/4/3
f 207/4/3 204/4/3 203/4/3
f 208/4/3 204/4/3 207/4/3
f 213/4/3 210/4/3 209/4/3
f 214/4/3 210/4/3 213/4/3
f 215/4/3 210/4/3 214/4/3
f 218/4/3 212/4/3 211/4/3
f 219/4/3 212/4/3 218/4/3
f 220/4/3 216/4/3 215/4/3
f 220/4/3 215/4/3 214/4/3
f 221/4/3 216/4/3 220/4/3
f 222/4/3 218/4/3 217/4/3
f 223/4/3 218/4/3 222/4/3
f 226/2/3 225/2/3 224/2/3
f 227/2/3 225/2/3 226/2/3
f 230/2/3 229/2/3 228/2/3
f 231/2/3 229/2/3 230/2/3
f 234/2/3 233/2/3 232/2/3
f 235/2/3 233/2/3 234/2/3
f 236/2/4 237/2/4 238/2/4
f 238/2/4 237/2/4 239/2/4
f 240/2/4 241/2/4 242/2/4
f 242/2/4 241/2/4 243/2/4
f 244/2/4 245/2/4 246/2/4
f 246/2/4 245/2/4 247/2/4
f 248/4/4 249/4/4 253/4/4
f 253/4/4 249/4/4 254/4/4
f 250/4/4 251/4/4 255/4/4
f 255/4/4 251/4/4 256/4/4
f 252/4/4 253/4/4 258/4/4
f 258/4/4 253/4/4 259/4/4
f 256/4/4 257/4/4 260/4/4
f 260/4/4 257/4/4 261/4/4
f 262/4/4 263/4/4 266/4/4
f 266/4/4 263/4/4 267/4/4
f 267/4/4 263/4/4 268/4/4
f 264/4/4 265/4/4 271/4/4
f 271/4/4 265/4/4 272/4/4
f 268/4/4 269/4/4 273/4/4
f 267/4/4 268/4/4 273/4/4
f 273/4/4 269/4/4 274/4/4
f 270/4/4 271/4/4 275/4/4
f 275/4/4 271/4/4 276/4/4
f 277/4/4 278/4/4 281/4/4
f 281/4/4 278/4/4 282/4/4
f 279/4/4 280/4/4 285/4/4
f 285/4/4 280/4/4 286/4/4
f 282/4/4 283/4/4 287/4/4
f 287/4/4 283/4/4 288/4/4
f 284/4/4 285/4/4 290/4/4
f 290/4/4 285/4/4 291/4/4
f 288/4/4 289/4/4 295/4/4
f 295/4/4 289/4/4 296/4/4
f 292/4/4 293/4/4 297/4/4
f 297/4/4 293/4/4 298/4/4
f 294/4/4 295/4/4 299/4/4
f 299/4/4 295/4/4 300/4/4
f 298/4/4 299/4/4 301/4/4
f 301/4/4 299/4/4 302/4/4
f 303/4/4 304/4/4 306/4/4
f 306/4/4 304/4/4 307/4/4
f 305/4/4 306/4/4 309/4/4
f 307/4/4 308/4/4 309/4/4
f 306/4/4 307/4/4 309/4/4
f 309/4/4 308/4/4 310/4/4
f 310/4/4 308/4/4 311/4/4
f 311/4/4 308/4/4 312/4/4
f 310/4/4 311/4/4 313/4/4
f 313/4/4 311/4/4 314/4/4
f 318/2/5 316/2/5 315/2/5
f 319/2/5 316/2/5 318/2/5
f 321/2/5 318/2/5 317/2/5
f 321/2/5 320/2/5 319/2/5
f 321/2/5 319/2/5 318/2/5
f 322/2/5 320/2/5 321/2/5
f 323/2/5 320/2/5 322/2/5
f 324/2/5 320/2/5 323/2/5
f 325/2/5 323/2/5 322/2/5
f 326/2/5 323/2/5 325/2/5
f 330/4/5 328/4/5 327/4/5
f 331/4/5 328/4/5 330/4/5
f 333/4/5 330/4/5 329/4/5
f 333/4/5 332/4/5 331/4/5
f 333/4/5 331/4/5 330/4/5
f 334/4/5 332/4/5 333/4/5
f 335/4/5 333/4/5 329/4/5
f 336/4/5 333/4/5 335/4/5
f 337/4/5 332/4/5 334/4/5
f 338/4/5 332/4/5 337/4/5
f 339/4/5 335/4/5 329/4/5
f 342/4/5 332/4/5 338/4/5
f 343/4/5 340/4/5 339/4/5
f 344/4/5 342/4/5 341/4/5
f 345/4/5 343/4/5 339/4/5
f 345/4/5 344/4/5 343/4/5
f 345/4/5 339/4/5 329/4/5
f 346/4/5 344/4/5 345/4/5
f 347/4/5 342/4/5 344/4/5
f 347/4/5 344/4/5 346/4/5
f 347/4/5 332/4/5 342/4/5
f 348/4/5 332/4/5 347/4/5
f 349/4/5 347/4/5 346/4/5
f 350/4/5 347/4/5 349/4/5
f 354/4/5 352/4/5 351/4/5
f 355/4/5 352/4/5 354/4/5
f 357/4/5 354/4/5 353/4/5
f 358/4/5 354/4/5 357/4/5
f 361/4/5 357/4/5 356/4/5
f 362/4/5 357/4/5 361/4/5
f 364/4/5 360/4/5 359/4/5
f 365/4/5 360/4/5 364/4/5
f 366/4/5 363/4/5 362/4/5
f 367/4/5 363/4/5 366/4/5
f 369/4/5 368/4/5 367/4/5
f 370/4/5 368/4/5 369/4/5
f 373/4/5 372/4/5 371/4/5
f 374/4/5 372/4/5 373/4/5
f 377/4/5 376/4/5 375/4/5
f 378/4/5 376/4/5 377/4/5
f 381/4/5 380/4/5 379/4/5
f 382/4/5 380/4/5 381/4/5
f 388/4/5 384/4/5 383/4/5
f 389/4/5 384/4/5 388/4/5
f 390/4/5 386/4/5 385/4/5
f 391/4/5 386/4/5 390/4/5
f 393/4/5 388/4/5 387/4/5
f 394/4/5 388/4/5 393/4/5
f 395/4/5 392/4/5 391/4/5
f 396/4/5 392/4/5 395/4/5
f 401/4/5 398/4/5 397/4/5
f 402/4/5 398/4/5 401/4/5
f 404/4/5 400/4/5 399/4/5
f 405/4/5 400/4/5 404/4/5
f 406/4/5 404/4/5 403/4/5
f 407/4/5 404/4/5 406/4/5
f 408/4/6 409/4/6 413/4/6
f 413/4/6 409/4/6 414/4/6
f 410/4/6 411/4/6 415/4/6
f 415/4/6 411/4/6 416/4/6
f 412/4/6 413/4/6 418/4/6
f 418/4/6 413/4/6 419/4/6
f 416/4/6 417/4/6 420/4/6
f 420/4/6 417/4/6 421/4/6
f 422/4/6 423/4/6 426/4/6
f 426/4/6 423/4/6 427/4/6
f 424/4/6 425/4/6 430/4/6
f 430/4/6 425/4/6 431/4/6
f 427/4/6 428/4/6 432/4/6
f 432/4/6 428/4/6 433/4/6
f 429/4/6 430/4/6 434/4/6
f 434/4/6 430/4/6 435/4/6
f 436/4/6 437/4/6 439/4/6
f 439/4/6 437/4/6 440/4/6
f 438/4/6 439/4/6 443/4/6
f 443/4/6 439/4/6 444/4/6
f 440/4/6 441/4/6 445/4/6
f 445/4/6 441/4/6 446/4/6
f 442/4/6 443/4/6 448/4/6
f 448/4/6 443/4/6 449/4/6
f 446/4/6 447/4/6 452/4/6
f 452/4/6 447/4/6 453/4/6
f 449/4/6 450/4/6 454/4/6
f 454/4/6 450/4/6 455/4/6
f 451/4/6 452/4/6 456/4/6
f 456/4/6 452/4/6 457/4/6
f 455/4/6 456/4/6 458/4/6
f 458/4/6 456/4/6 459/4/6
f 460/4/6 461/4/6 463/4/6
f 463/4/6 461/4/6 464/4/6
f 462/4/6 463/4/6 466/4/6
f 464/4/6 465/4/6 466/4/6
f 463/4/6 464/4/6 466/4/6
f 466/4/6 465/4/6 467/4/6
f 467/4/6 465/4/6 468/4/6
f 468/4/6 465/4/6 469/4/6
f 467/4/6 468/4/6 470/4/6
f 470/4/6 468/4/6 471/4/6
